<svg xmlns="http://www.w3.org/2000/svg" width="24.001" height="22.508" viewBox="0 0 24.001 22.508">
  <path id="request" d="M18.619,3.242a.75.75,0,0,0-.588,1.189,12.277,12.277,0,0,0,2.111,2.314.75.75,0,1,0,.938-1.172,10.727,10.727,0,0,1-1.82-2.006.75.75,0,0,0-.641-.326Zm-4.033.4A.75.75,0,0,0,14.063,4.9a59.494,59.494,0,0,0,4.645,4.662.75.75,0,1,0,.99-1.125A58.322,58.322,0,0,1,15.184,3.9.75.75,0,0,0,14.586,3.646ZM9.307,5a1.074,1.074,0,0,0-.633,1.855L13.66,11.42l-.979,1.1L6.631,7.115a1.073,1.073,0,0,0-1.506.07L5.113,7.2a1.071,1.071,0,0,0,.072,1.525l5.785,5.143-.734.979L4.795,10.252a1.072,1.072,0,0,0-1.482.09l-.029.029A1.073,1.073,0,0,0,3.361,11.9l5.162,4.531-.611.734L4.918,14.563a1.071,1.071,0,0,0-1.5.076l-.033.035a1.073,1.073,0,0,0,.059,1.514c1.767,1.643,6.078,5.3,7.916,6.721a6.655,6.655,0,0,0,7.914.563,20.238,20.238,0,0,0,3.75-5.139C23.758,16.74,27,10.074,27,10.074c-.978-.856-2.446-1.222-4.158.49a18.889,18.889,0,0,0-2.471,3.15L10.086,5.244A1.074,1.074,0,0,0,9.307,5ZM3.836,20.582A.75.75,0,0,0,3.512,22,32.965,32.965,0,0,1,8.9,25.57a.75.75,0,0,0,.975-1.141A33.6,33.6,0,0,0,4.2,20.668a.75.75,0,0,0-.361-.086Z" transform="translate(-2.999 -3.242)" fill="#ebebeb"/>
</svg>
